<svg width="28" height="42" viewBox="0 0 28 42" fill="none" xmlns="http://www.w3.org/2000/svg">
<path fill-rule="evenodd" clip-rule="evenodd" d="M14.0967 21.064C14.0967 17.305 17.1427 14.2578 20.9001 14.2578C24.6575 14.2578 27.7035 17.305 27.7035 21.064C27.7035 24.8229 24.6575 27.8701 20.9001 27.8701C17.1427 27.8701 14.0967 24.8229 14.0967 21.064Z" fill="#1ABCFE"/>
<path fill-rule="evenodd" clip-rule="evenodd" d="M0.490234 34.6771C0.490234 30.9183 3.53622 27.8711 7.29364 27.8711H14.097V34.6771C14.097 38.436 11.0511 41.4832 7.29364 41.4832C3.53622 41.4832 0.490234 38.436 0.490234 34.6771Z" fill="#0ACF83"/>
<path fill-rule="evenodd" clip-rule="evenodd" d="M14.0967 0.646484V14.2587H20.9001C24.6575 14.2587 27.7035 11.2115 27.7035 7.45258C27.7035 3.69368 24.6575 0.646484 20.9001 0.646484H14.0967Z" fill="#FF7262"/>
<path fill-rule="evenodd" clip-rule="evenodd" d="M0.490234 7.45258C0.490234 11.2115 3.53622 14.2587 7.29364 14.2587H14.097V0.646484H7.29364C3.53622 0.646484 0.490234 3.69368 0.490234 7.45258Z" fill="#F24E1E"/>
<path fill-rule="evenodd" clip-rule="evenodd" d="M0.490234 21.064C0.490234 24.8229 3.53622 27.8701 7.29364 27.8701H14.097V14.2578H7.29364C3.53622 14.2578 0.490234 17.305 0.490234 21.064Z" fill="#A259FF"/>
</svg>
